PathFileType	4	(X/Y/Z)	Kaydara																																																																																																																									
DataRate	CameraRate	NumFrames	NumMarkers	Units	OrigDataRate	OrigDataStartFrame	OrigNumFrames																																																																																																																					
30	30	7	41	mm	30	1	132																																																																																																																					
Frame#	Time	SALE_LFHD			SALE_RFHD			SALE_LBHD			SALE_RBHD			SALE_LFTShould			SALE_RFTShould			SALE_LRRShould			SALE_RRRShould			SALE_T10			SALE_STRN			SALE_TRUN			SALE_LSHO			SALE_LUPA			SALE_LELB			SALE_LFRM			SALE_LWRA			SALE_LWRB			SALE_LFIN			SALE_RSHO			SALE_RUPA			SALE_RELB			SALE_RFRM			SALE_RWRB			SALE_RFIN			SALE_LFWT			SALE_RFWT			SALE_LBWT			SALE_RBWT			SALE_LTHI			SALE_LKNE			SALE_RWRA			SALE_LSHN			SALE_LANK			SALE_LHEE			SALE_LTOE			SALE_RTHI			SALE_RKNE			SALE_RSHN			SALE_RANK			SALE_RHEE			SALE_RTOE		
		X1	Y1	Z1	X2	Y2	Z2	X3	Y3	Z3	X4	Y4	Z4	X5	Y5	Z5	X6	Y6	Z6	X7	Y7	Z7	X8	Y8	Z8	X9	Y9	Z9	X10	Y10	Z10	X11	Y11	Z11	X12	Y12	Z12	X13	Y13	Z13	X14	Y14	Z14	X15	Y15	Z15	X16	Y16	Z16	X17	Y17	Z17	X18	Y18	Z18	X19	Y19	Z19	X20	Y20	Z20	X21	Y21	Z21	X22	Y22	Z22	X23	Y23	Z23	X24	Y24	Z24	X25	Y25	Z25	X26	Y26	Z26	X27	Y27	Z27	X28	Y28	Z28	X29	Y29	Z29	X30	Y30	Z30	X31	Y31	Z31	X32	Y32	Z32	X33	Y33	Z33	X34	Y34	Z34	X35	Y35	Z35	X36	Y36	Z36	X37	Y37	Z37	X38	Y38	Z38	X39	Y39	Z39	X40	Y40	Z40	X41	Y41	Z41
																																																																																																																												
1	0	240.16815	1653.19199	-1962.45148	109.0976	1649.27841	-1967.77161	241.77713	1636.83304	-2096.68335	115.16242	1632.25189	-2094.5047	260.37159	1390.95276	-2009.30588	117.1143	1387.08099	-2003.83606	247.21296	1444.70795	-2122.84348	97.95175	1449.89365	-2108.18893	168.72807	1291.9809	-2182.81052	187.37232	1317.84561	-1957.09702	187.0047	1232.25098	-1914.88098	370.411	1414.59976	-2085.40771	408.44215	1199.35074	-2111.11328	389.87419	1091.69083	-2132.42676	423.53054	987.45728	-2117.29523	374.46636	842.54738	-2052.44995	433.83507	839.86237	-2100.33112	437.07031	792.04895	-2055.97488	7.4919	1416.6745	-2060.06439	-25.61173	1187.286	-2123.11859	-55.99592	1087.90543	-2078.9119	-50.18602	975.43381	-2090.43213	-70.96784	834.70512	-2046.44043	-87.5841	799.03236	-1993.04657	310.64001	974.29367	-1976.88843	30.69837	972.81281	-1985.16556	255.88438	1042.20688	-2142.80487	78.89739	1047.61436	-2147.26364	304.78842	679.76273	-2154.98566	299.58212	506.52691	-2084.53781	-32.69451	848.62396	-1987.77283	295.93628	309.17313	-2091.97464	288.16885	126.44229	-2143.06671	246.44257	76.29817	-2204.94537	271.9663	86.22048	-2009.2984	23.28482	726.45157	-2151.61346	37.01012	563.46691	-2055.15427	85.76593	375.04936	-2075.81467	39.00178	124.19027	-2137.34207	44.90828	78.68075	-2016.11877	84.52415	64.25883	-2206.20285
2	0.033	240.80385	1652.91458	-1962.5119	109.89254	1649.15726	-1967.43423	242.06251	1636.97937	-2096.84082	115.4893	1632.55234	-2094.29016	260.63992	1391.09879	-2010.06027	117.3446	1387.57919	-2004.07898	247.12259	1444.75266	-2123.46161	97.8948	1449.99695	-2108.39401	168.49735	1292.061	-2183.19595	187.74181	1317.97424	-1957.57538	187.45483	1232.46422	-1915.30563	370.52471	1414.76135	-2086.6864	408.51486	1199.4236	-2111.96167	390.03456	1091.73523	-2133.06198	424.45625	986.77116	-2116.41098	375.25745	843.08411	-2051.57852	434.41944	840.04646	-2100.20782	437.75684	792.31186	-2055.54092	7.56596	1416.77933	-2060.03113	-25.35646	1187.4173	-2123.31299	-55.61592	1087.98889	-2079.42505	-49.69936	975.59174	-2091.26877	-70.57531	834.87419	-2046.83929	-86.57729	798.72536	-1994.3721	310.62174	974.36226	-1977.38708	30.68877	972.87857	-1985.02319	255.57098	1042.2216	-2143.23822	78.52936	1047.58316	-2147.45712	304.53697	679.75494	-2155.3363	299.47224	506.49796	-2084.74442	-31.76933	848.47054	-1989.00055	295.8547	309.16304	-2092.0903	288.28224	126.36625	-2143.41064	246.41937	76.25088	-2204.95163	271.9623	86.23382	-2009.31473	23.16761	726.39244	-2151.56616	36.96422	563.50471	-2055.15427	85.73524	375.05844	-2075.82672	38.99525	124.1577	-2137.30865	44.90663	78.70278	-2016.12213	84.52337	64.22754	-2206.23199
3	0.067	241.82299	1652.45911	-1962.73117	110.78952	1649.08752	-1967.08908	242.4349	1637.21222	-2097.08603	115.85517	1633.04428	-2093.94669	260.82911	1391.05515	-2010.90988	118.01486	1387.84683	-2004.07822	246.98578	1444.75632	-2124.51004	97.8108	1450.11124	-2108.82553	168.05511	1292.13409	-2183.91449	188.0422	1318.20938	-1958.13416	187.88162	1232.76558	-1915.9024	370.5896	1414.86908	-2088.11935	408.52184	1199.51576	-2112.96677	390.23468	1091.6906	-2133.58307	425.19978	986.50032	-2115.54398	374.31435	843.80669	-2049.2984	435.03338	840.21507	-2098.2988	438.80962	793.10379	-2053.14163	7.62392	1416.90872	-2060.04669	-25.15452	1187.83043	-2124.02115	-55.3507	1088.30917	-2080.56335	-49.10465	975.70419	-2092.41135	-69.18953	834.89975	-2048.32016	-84.89471	798.55049	-1995.36896	310.50222	974.37843	-1978.27896	30.64152	972.85988	-1984.94339	255.13741	1042.21321	-2143.91342	78.01706	1047.5563	-2147.66113	304.29594	679.67705	-2155.80276	299.2662	506.40755	-2085.02914	-30.24437	848.50204	-1990.24384	295.78714	309.12523	-2092.24548	288.60489	126.09658	-2144.33746	246.40047	76.21065	-2204.98566	271.95168	86.22524	-2009.3277	22.83557	726.32179	-2151.58585	36.96373	563.46394	-2055.09064	85.72251	375.00034	-2075.71548	39.01618	124.12436	-2137.37701	44.94368	78.73974	-2016.13724	84.51684	64.18845	-2206.23993
4	0.1	242.53178	1652.02164	-1962.95746	111.66366	1648.97736	-1966.80099	242.68467	1637.44186	-2097.38983	116.07978	1633.55743	-2093.8559	261.07166	1391.1969	-2011.73355	119.40537	1388.65875	-2003.87726	246.82089	1444.81766	-2125.48508	97.68144	1450.22781	-2109.31717	167.66499	1292.18582	-2184.56863	188.25014	1318.46588	-1958.70819	188.26584	1233.06252	-1916.44745	370.43591	1414.86237	-2089.32831	408.58006	1199.57626	-2113.59573	390.52868	1091.56883	-2133.62747	425.66521	986.42014	-2114.24652	376.89438	844.43344	-2046.10565	435.58594	840.37689	-2094.65424	439.86923	794.20746	-2048.88596	7.63078	1417.04559	-2060.21973	-25.24527	1188.31932	-2124.94339	-55.22641	1088.54065	-2081.55304	-48.70652	975.78033	-2093.12256	-68.30016	835.00824	-2048.58719	-83.28112	798.68118	-1995.52322	310.51584	974.39384	-1979.14246	30.70301	972.75192	-1985.38574	254.75929	1042.21085	-2144.67529	77.60267	1047.46178	-2147.89398	304.24683	679.6315	-2156.23901	299.24862	506.38939	-2085.23773	-28.77019	848.94913	-1990.82687	295.76153	309.1419	-2092.39746	288.62675	125.93963	-2144.49173	246.3694	76.16765	-2204.97314	271.93035	86.22649	-2009.29657	22.43248	726.20567	-2151.50604	36.97495	563.45936	-2054.91547	85.72134	374.94278	-2075.55344	39.01454	124.09628	-2137.33932	45.00634	78.75337	-2016.15509	84.52362	64.16511	-2206.26831
5	0.133	243.1374	1651.74454	-1963.30597	112.20154	1648.86551	-1966.71341	242.83119	1637.73239	-2097.79114	116.19056	1633.93417	-2093.83469	261.06329	1391.33057	-2012.60956	118.12316	1388.21823	-2005.13412	246.68455	1444.88419	-2126.33392	97.5681	1450.37292	-2109.84985	167.34648	1292.2583	-2185.21545	188.42203	1318.75061	-1959.3483	188.37637	1233.31879	-1916.92734	370.41645	1415.03479	-2090.40604	408.64338	1199.6064	-2113.73016	390.82119	1091.37718	-2133.21198	425.89226	986.15768	-2111.91696	377.72083	845.6897	-2040.95978	436.03733	840.62889	-2089.70123	440.72048	795.55519	-2043.04504	7.64619	1417.25784	-2060.45486	-25.34038	1188.82553	-2125.71198	-55.04948	1088.60138	-2082.2406	-48.46611	975.96603	-2093.55423	-67.41956	835.24292	-2048.2106	-82.00132	799.10561	-1994.93164	310.54171	974.45	-1980.01434	30.83939	972.76505	-1985.40863	254.34402	1042.17682	-2145.48615	77.18641	1047.28874	-2148.21869	304.12991	679.62753	-2156.75644	299.28961	506.42105	-2085.51605	-27.80621	849.79431	-1990.6546	295.76193	309.14169	-2092.53738	288.57866	125.92624	-2144.48776	246.38147	76.12214	-2204.98962	271.94851	86.24662	-2009.32877	21.9464	726.04713	-2151.26205	37.11371	563.40553	-2054.66019	85.83194	374.87106	-2075.41611	39.00251	124.08446	-2137.26028	45.04581	78.74908	-2016.1496	84.52	64.14879	-2206.2471
6	0.167	243.48188	1651.53915	-1963.66241	112.4829	1648.80142	-1966.86111	242.83665	1637.96234	-2098.27408	116.21235	1634.25247	-2093.94547	261.01509	1391.61789	-2013.44086	118.04538	1388.52341	-2006.00555	246.61087	1444.97864	-2127.17026	97.4981	1450.51987	-2110.43579	167.15103	1292.32208	-2185.86472	188.49092	1319.03748	-1959.88327	188.37879	1233.61397	-1917.44095	370.41534	1415.29892	-2091.37482	408.75645	1199.71657	-2113.50952	391.1705	1091.24748	-2132.39685	426.16394	986.14388	-2109.10446	378.11989	847.15019	-2035.11612	436.24313	841.05103	-2083.67432	441.20045	797.20688	-2036.07544	7.62355	1417.51938	-2060.81604	-25.55093	1189.15215	-2126.09772	-55.12722	1088.87329	-2082.6355	-48.47257	976.0791	-2093.44437	-67.09935	835.63736	-2047.33643	-81.22066	799.64195	-1993.75046	310.67339	974.53598	-1980.69397	30.97943	972.82661	-1985.38925	253.99954	1042.12685	-2146.25443	76.76645	1047.11487	-2148.57635	303.94232	679.58893	-2157.27585	299.22194	506.41869	-2085.81268	-27.31968	850.44525	-1990.05173	295.674	309.09325	-2092.68814	288.563	125.94758	-2144.55246	246.3681	76.0785	-2205.00366	271.93661	86.24042	-2009.366	21.43652	725.91377	-2151.07651	37.25152	563.40187	-2054.58527	85.88203	374.85977	-2075.44296	39.05014	124.0747	-2137.29111	45.07017	78.74042	-2016.14548	84.56165	64.11768	-2206.25351
7	0.2	243.62175	1651.5123	-1964.13208	112.55156	1648.65204	-1967.15973	242.75091	1638.20831	-2098.73947	116.17075	1634.39255	-2094.27048	260.84656	1391.86127	-2014.06418	118.45065	1388.76923	-2005.99976	246.57164	1445.00565	-2127.82928	97.48785	1450.59174	-2111.02509	166.99696	1292.37823	-2186.50711	188.46924	1319.32922	-1960.41443	188.40839	1233.97751	-1917.91183	370.3759	1415.44861	-2091.716	408.94508	1199.85535	-2112.85675	391.6288	1091.24916	-2131.22955	426.45515	986.27556	-2105.80353	378.26866	848.96263	-2028.72543	436.39843	841.68571	-2077.06299	441.37966	799.11629	-2028.43079	7.61612	1417.77283	-2061.29227	-25.89674	1189.32945	-2126.17889	-55.37105	1089.10118	-2082.45209	-48.73741	976.19698	-2092.83722	-67.18728	836.11023	-2046.03683	-81.10077	800.27687	-1992.17117	310.85133	974.67819	-1980.66925	31.15255	972.92229	-1985.76935	253.66768	1042.09	-2147.03522	76.40227	1047.03598	-2148.89114	303.69812	679.55612	-2157.64771	299.08756	506.39694	-2086.1116	-27.19541	851.12213	-1988.89786	295.63986	309.14272	-2092.83844	288.52345	125.91288	-2144.61212	246.33791	76.03802	-2205.01923	271.94052	86.26662	-2009.33975	21.08646	725.87456	-2151.08963	37.29488	563.40527	-2054.51614	85.8663	374.84451	-2075.43335	39.00987	124.05149	-2137.3201	45.10829	78.76691	-2016.14227	84.55633	64.08698	-2206.27121
